<svg version="1.1" id="Layer_1" xmlns="http://www.w3.org/2000/svg" xmlns:xlink="http://www.w3.org/1999/xlink" x="0px" y="0px"
	 width="100%" viewBox="0 0 500 500" enable-background="new 0 0 500 500" xml:space="preserve">
<path fill="#000000" opacity="1.000000" stroke="none" 
	d="
M348.000000,501.000000 
	C232.000031,501.000000 116.500053,501.000000 1.000062,501.000000 
	C1.000041,334.333405 1.000041,167.666794 1.000021,1.000151 
	C167.666550,1.000101 334.333099,1.000101 500.999756,1.000051 
	C500.999817,167.666519 500.999817,334.333038 500.999908,500.999786 
	C450.166656,501.000000 399.333344,501.000000 348.000000,501.000000 
M131.324966,162.881424 
	C131.126678,163.227737 130.928391,163.574051 130.183914,164.301300 
	C117.520782,181.753876 108.887741,201.022934 103.783279,222.443588 
	C103.831451,222.966080 103.879623,223.488571 103.647064,224.750793 
	C103.478775,225.516037 103.310493,226.281296 102.821121,227.575409 
	C102.852592,228.387466 102.884071,229.199509 102.521629,230.711655 
	C102.370583,231.482101 102.219536,232.252548 101.789543,233.764694 
	C101.472908,238.850800 101.156273,243.936890 100.491112,249.897751 
	C100.555588,254.924271 100.620064,259.950806 100.516731,265.871704 
	C100.883553,270.170441 101.122589,274.484528 101.637550,278.765442 
	C105.510757,310.963989 118.480530,339.314148 140.393997,362.880066 
	C176.519836,401.730194 221.040222,419.026917 274.256836,411.037811 
	C306.494385,406.198181 333.623505,391.083191 356.375488,368.195648 
	C380.669769,343.756592 395.280823,314.286957 400.114166,279.350098 
	C400.057495,278.893738 400.000854,278.437347 400.224030,277.320129 
	C400.270905,275.875244 400.317749,274.430389 400.801697,272.142548 
	C400.881958,264.002045 401.208374,255.853714 400.950623,247.723907 
	C400.794708,242.806305 399.733063,237.917450 399.282959,232.301788 
	C398.906433,230.675400 398.529907,229.048996 398.321960,226.624847 
	C397.922913,225.090897 397.523865,223.556946 397.319733,221.458282 
	C397.037354,220.569595 396.755005,219.680893 396.463165,218.183121 
	C396.337860,217.799210 396.212555,217.415314 396.308563,216.576492 
	C395.923920,215.902527 395.539307,215.228546 395.314331,213.824982 
	C388.745972,189.421219 376.897095,167.720184 359.355713,149.736237 
	C320.122101,109.512924 272.605469,93.889450 217.375824,106.217583 
	C182.076126,114.097031 153.490845,133.368149 131.324966,162.881424 
z"/>
<path fill="#00BBD4" opacity="1.000000" stroke="none" 
	d="
M100.684547,264.977325 
	C100.620064,259.950806 100.555588,254.924271 100.935165,249.304031 
	C102.723946,243.530197 104.775978,238.381165 102.068489,233.022995 
	C102.219536,232.252548 102.370583,231.482101 102.902000,230.199463 
	C103.235649,228.807037 103.188927,227.926788 103.142212,227.046539 
	C103.310493,226.281296 103.478775,225.516037 103.942780,224.259003 
	C104.210587,223.194763 104.182671,222.622330 104.154762,222.049881 
	C108.887741,201.022934 117.520782,181.753876 130.687683,163.928329 
	C131.418945,163.238083 131.646423,162.920792 131.873901,162.603500 
	C153.490845,133.368149 182.076126,114.097031 217.375824,106.217583 
	C272.605469,93.889450 320.122101,109.512924 359.355713,149.736237 
	C376.897095,167.720184 388.745972,189.421219 395.264832,214.527222 
	C395.505951,215.830124 395.796600,216.430756 396.087280,217.031403 
	C396.212555,217.415314 396.337860,217.799210 396.259766,218.659027 
	C396.412537,220.097626 396.768677,221.060318 397.124817,222.022995 
	C397.523865,223.556946 397.922913,225.090897 398.206573,227.412842 
	C398.420227,229.805771 398.749268,231.410721 399.078308,233.015671 
	C399.733063,237.917450 400.794708,242.806305 400.950623,247.723907 
	C401.208374,255.853714 400.881958,264.002045 400.340149,272.750122 
	C399.900482,274.898804 399.922333,276.439880 399.944183,277.980988 
	C400.000854,278.437347 400.057495,278.893738 399.674255,279.836151 
	C398.591034,282.152344 398.012604,284.008423 397.293549,285.808319 
	C393.794495,294.566742 389.762421,303.150238 386.872803,312.103485 
	C383.945282,321.174316 381.279938,330.123962 373.328766,336.284454 
	C372.701874,336.770142 372.343018,337.610260 371.882507,338.300964 
	C365.000519,348.622833 358.431915,358.937805 347.637543,366.173370 
	C335.595764,374.245117 325.938843,385.925476 311.011566,389.552429 
	C308.132690,390.251953 305.301392,391.394440 302.646912,392.728180 
	C289.792450,399.186768 276.387512,402.873993 261.834106,402.069183 
	C254.864288,401.683716 247.853577,401.998383 240.861984,402.061829 
	C236.745789,402.099182 232.308945,403.323639 228.572235,402.186859 
	C214.137405,397.795380 199.887482,392.779297 185.643112,387.783600 
	C172.747177,383.260864 163.596146,373.117188 152.935532,365.277008 
	C148.743439,362.194031 145.195007,358.130859 141.739044,354.177002 
	C136.855438,348.589813 132.254730,342.748352 127.684921,336.897034 
	C125.663895,334.309204 123.659424,331.599335 122.261841,328.653412 
	C117.377594,318.358124 112.690353,307.966980 108.090591,297.540649 
	C106.862991,294.758026 105.832954,291.778137 105.376152,288.787415 
	C104.274529,281.574982 103.617386,274.295471 102.621750,267.064911 
	C102.515694,266.294739 101.355637,265.669708 100.684547,264.977325 
M253.899719,396.060150 
	C260.021973,395.643250 266.263306,395.850159 272.247070,394.707855 
	C309.984406,387.503815 339.622772,367.759705 361.137451,335.991425 
	C381.076538,306.549652 388.099731,273.997314 383.672058,238.861603 
	C380.109924,210.594254 369.254944,185.357361 350.132782,164.306793 
	C317.381226,128.252411 276.635681,113.173424 228.230133,121.046494 
	C192.704086,126.824722 164.511887,145.174347 143.645599,174.186707 
	C121.145630,205.470520 112.272453,240.506805 118.350082,278.804596 
	C123.645164,312.171234 138.222366,340.720673 164.064575,362.973572 
	C184.549332,380.613129 207.966537,391.991272 235.509857,395.547668 
	C235.863770,395.660400 236.217682,395.773132 237.430008,395.892242 
	C241.626892,395.995209 245.823776,396.098175 250.473587,396.495789 
	C251.308746,396.397766 252.143921,396.299713 253.899719,396.060150 
z"/>
<path fill="#00B6CF" opacity="1.000000" stroke="none" 
	d="
M100.600639,265.424500 
	C101.355637,265.669708 102.515694,266.294739 102.621750,267.064911 
	C103.617386,274.295471 104.274529,281.574982 105.376152,288.787415 
	C105.832954,291.778137 106.862991,294.758026 108.090591,297.540649 
	C112.690353,307.966980 117.377594,318.358124 122.261841,328.653412 
	C123.659424,331.599335 125.663895,334.309204 127.684921,336.897034 
	C132.254730,342.748352 136.855438,348.589813 141.739044,354.177002 
	C145.195007,358.130859 148.743439,362.194031 152.935532,365.277008 
	C163.596146,373.117188 172.747177,383.260864 185.643112,387.783600 
	C199.887482,392.779297 214.137405,397.795380 228.572235,402.186859 
	C232.308945,403.323639 236.745789,402.099182 240.861984,402.061829 
	C247.853577,401.998383 254.864288,401.683716 261.834106,402.069183 
	C276.387512,402.873993 289.792450,399.186768 302.646912,392.728180 
	C305.301392,391.394440 308.132690,390.251953 311.011566,389.552429 
	C325.938843,385.925476 335.595764,374.245117 347.637543,366.173370 
	C358.431915,358.937805 365.000519,348.622833 371.882507,338.300964 
	C372.343018,337.610260 372.701874,336.770142 373.328766,336.284454 
	C381.279938,330.123962 383.945282,321.174316 386.872803,312.103485 
	C389.762421,303.150238 393.794495,294.566742 397.293549,285.808319 
	C398.012604,284.008423 398.591034,282.152344 399.544678,280.160034 
	C395.280823,314.286957 380.669769,343.756592 356.375488,368.195648 
	C333.623505,391.083191 306.494385,406.198181 274.256836,411.037811 
	C221.040222,419.026917 176.519836,401.730194 140.393997,362.880066 
	C118.480530,339.314148 105.510757,310.963989 101.637550,278.765442 
	C101.122589,274.484528 100.883553,270.170441 100.600639,265.424500 
z"/>
<path fill="#00B6CF" opacity="1.000000" stroke="none" 
	d="
M101.929016,233.393845 
	C104.775978,238.381165 102.723946,243.530197 101.109421,248.866653 
	C101.156273,243.936890 101.472908,238.850800 101.929016,233.393845 
z"/>
<path fill="#00B6CF" opacity="1.000000" stroke="none" 
	d="
M400.084106,277.650574 
	C399.922333,276.439880 399.900482,274.898804 400.121613,273.171600 
	C400.317749,274.430389 400.270905,275.875244 400.084106,277.650574 
z"/>
<path fill="#00B6CF" opacity="1.000000" stroke="none" 
	d="
M399.180634,232.658722 
	C398.749268,231.410721 398.420227,229.805771 398.122314,227.811707 
	C398.529907,229.048996 398.906433,230.675400 399.180634,232.658722 
z"/>
<path fill="#00B6CF" opacity="1.000000" stroke="none" 
	d="
M397.222290,221.740631 
	C396.768677,221.060318 396.412537,220.097626 396.264496,218.963577 
	C396.755005,219.680893 397.037354,220.569595 397.222290,221.740631 
z"/>
<path fill="#00B6CF" opacity="1.000000" stroke="none" 
	d="
M102.981659,227.310974 
	C103.188927,227.926788 103.235649,228.807037 103.098961,229.849426 
	C102.884071,229.199509 102.852592,228.387466 102.981659,227.310974 
z"/>
<path fill="#00B6CF" opacity="1.000000" stroke="none" 
	d="
M103.969025,222.246735 
	C104.182671,222.622330 104.210587,223.194763 104.083145,223.889130 
	C103.879623,223.488571 103.831451,222.966080 103.969025,222.246735 
z"/>
<path fill="#00B6CF" opacity="1.000000" stroke="none" 
	d="
M396.197937,216.803940 
	C395.796600,216.430756 395.505951,215.830124 395.184998,214.892029 
	C395.539307,215.228546 395.923920,215.902527 396.197937,216.803940 
z"/>
<path fill="#00B6CF" opacity="1.000000" stroke="none" 
	d="
M131.599426,162.742462 
	C131.646423,162.920792 131.418945,163.238083 130.960785,163.737854 
	C130.928391,163.574051 131.126678,163.227737 131.599426,162.742462 
z"/>
<path fill="#000203" opacity="1.000000" stroke="none" 
	d="
M235.027710,395.271423 
	C207.966537,391.991272 184.549332,380.613129 164.064575,362.973572 
	C138.222366,340.720673 123.645164,312.171234 118.350082,278.804596 
	C112.272453,240.506805 121.145630,205.470520 143.645599,174.186707 
	C164.511887,145.174347 192.704086,126.824722 228.230133,121.046494 
	C276.635681,113.173424 317.381226,128.252411 350.132782,164.306793 
	C369.254944,185.357361 380.109924,210.594254 383.672058,238.861603 
	C388.099731,273.997314 381.076538,306.549652 361.137451,335.991425 
	C339.622772,367.759705 309.984406,387.503815 272.247070,394.707855 
	C266.263306,395.850159 260.021973,395.643250 253.073318,396.056580 
	C251.504837,396.102417 250.762741,396.151764 250.020660,396.201111 
	C245.823776,396.098175 241.626892,395.995209 236.805023,395.659607 
	C235.795929,395.375122 235.411819,395.323273 235.027710,395.271423 
M184.190018,243.272522 
	C187.557220,248.592041 190.732025,254.048340 194.374741,259.171967 
	C196.133331,261.645508 195.977814,263.295074 194.401764,265.716492 
	C186.619293,277.673676 179.009888,289.743805 171.377975,301.798492 
	C164.941086,311.965637 158.557022,322.166229 151.722794,333.030457 
	C161.891739,333.030457 171.180359,333.159180 180.457428,332.889923 
	C181.829376,332.850098 183.545151,331.187195 184.422180,329.834564 
	C188.847733,323.008942 193.020508,316.020081 197.335083,309.121674 
	C202.140533,301.438416 207.003128,293.790894 212.292130,285.412903 
	C217.906189,294.423828 222.946381,302.781708 228.254120,310.966095 
	C235.116318,321.547394 241.485016,332.568665 253.776276,338.184753 
	C267.217865,344.326385 281.056732,346.653473 295.867737,345.203217 
	C318.210785,343.015411 333.460938,331.460419 342.833710,311.598755 
	C349.152802,298.208038 351.432678,283.841858 352.668457,269.182648 
	C354.643829,245.750427 353.461395,222.663284 345.280396,200.438965 
	C337.623474,179.638428 323.592773,165.086121 300.856995,162.343597 
	C278.604614,159.659363 259.298004,166.642258 245.813507,185.435898 
	C238.864151,195.121353 233.010727,205.594620 226.691055,215.729935 
	C221.914246,223.390854 217.183380,231.080414 212.126999,239.250092 
	C210.712326,237.087265 209.794571,235.732315 208.924942,234.347153 
	C200.979996,221.692123 193.082047,209.007217 185.049377,196.408188 
	C184.169708,195.028458 182.556793,193.201172 181.238007,193.162857 
	C171.678268,192.885056 162.106720,193.013687 151.774338,193.013687 
	C162.781967,210.122330 173.261887,226.410767 184.190018,243.272522 
z"/>
<path fill="#00B6CF" opacity="1.000000" stroke="none" 
	d="
M250.247131,396.348450 
	C250.762741,396.151764 251.504837,396.102417 252.613007,396.127350 
	C252.143921,396.299713 251.308746,396.397766 250.247131,396.348450 
z"/>
<path fill="#00B6CF" opacity="1.000000" stroke="none" 
	d="
M235.268784,395.409546 
	C235.411819,395.323273 235.795929,395.375122 236.375824,395.656433 
	C236.217682,395.773132 235.863770,395.660400 235.268784,395.409546 
z"/>
<path fill="#00C5DE" opacity="1.000000" stroke="none" 
	d="
M183.965912,242.985870 
	C173.261887,226.410767 162.781967,210.122330 151.774338,193.013687 
	C162.106720,193.013687 171.678268,192.885056 181.238007,193.162857 
	C182.556793,193.201172 184.169708,195.028458 185.049377,196.408188 
	C193.082047,209.007217 200.979996,221.692123 208.924942,234.347153 
	C209.794571,235.732315 210.712326,237.087265 212.126999,239.250092 
	C217.183380,231.080414 221.914246,223.390854 226.691055,215.729935 
	C233.010727,205.594620 238.864151,195.121353 245.813507,185.435898 
	C259.298004,166.642258 278.604614,159.659363 300.856995,162.343597 
	C323.592773,165.086121 337.623474,179.638428 345.280396,200.438965 
	C353.461395,222.663284 354.643829,245.750427 352.668457,269.182648 
	C351.432678,283.841858 349.152802,298.208038 342.833710,311.598755 
	C333.460938,331.460419 318.210785,343.015411 295.867737,345.203217 
	C281.056732,346.653473 267.217865,344.326385 253.776276,338.184753 
	C241.485016,332.568665 235.116318,321.547394 228.254120,310.966095 
	C222.946381,302.781708 217.906189,294.423828 212.292130,285.412903 
	C207.003128,293.790894 202.140533,301.438416 197.335083,309.121674 
	C193.020508,316.020081 188.847733,323.008942 184.422180,329.834564 
	C183.545151,331.187195 181.829376,332.850098 180.457428,332.889923 
	C171.180359,333.159180 161.891739,333.030457 151.722794,333.030457 
	C158.557022,322.166229 164.941086,311.965637 171.377975,301.798492 
	C179.009888,289.743805 186.619293,277.673676 194.401764,265.716492 
	C195.977814,263.295074 196.133331,261.645508 194.374741,259.171967 
	C190.732025,254.048340 187.557220,248.592041 183.965912,242.985870 
M281.786591,199.654282 
	C281.958282,199.866486 282.129944,200.078705 282.381012,201.037689 
	C277.343719,213.798828 275.174133,227.097961 274.622345,241.110870 
	C292.302490,241.110870 309.675323,241.110870 327.652161,241.110870 
	C327.256897,237.445251 327.240967,234.134964 326.499298,230.996140 
	C323.999573,220.416824 322.632172,209.284088 318.300323,199.481659 
	C308.572174,177.468094 283.182526,175.805710 270.001282,195.900192 
	C256.270691,216.832123 243.051514,238.101593 229.835953,259.364716 
	C228.926559,260.827881 229.165451,263.932648 230.132660,265.490051 
	C239.320480,280.284454 248.687759,294.970215 258.193909,309.563141 
	C265.747711,321.159088 277.002808,326.121521 290.454529,325.815735 
	C304.848450,325.488495 314.590363,317.534027 319.463409,304.541748 
	C322.802582,295.639038 324.494019,286.078796 326.450623,276.714020 
	C327.406006,272.141388 327.285126,267.343903 327.648376,262.686462 
	C309.543640,262.686462 292.281311,262.686462 274.343201,262.686462 
	C274.721222,267.623810 274.882019,272.214661 275.455872,276.753326 
	C277.187897,290.451508 280.572357,303.649780 288.573914,315.760651 
	C279.585754,315.043365 272.462097,312.349060 267.804291,304.883728 
	C262.541656,296.449097 256.186218,288.526398 252.126068,279.557190 
	C247.701767,269.783447 248.529816,258.817108 249.549179,248.208038 
	C249.666595,246.986160 250.632004,245.806931 251.329468,244.685837 
	C256.235992,236.799240 261.048828,228.850128 266.140533,221.084183 
	C271.032135,213.623444 276.223389,206.359192 281.786591,199.654282 
z"/>
<path fill="#010506" opacity="1.000000" stroke="none" 
	d="
M281.282990,199.008591 
	C276.223389,206.359192 271.032135,213.623444 266.140533,221.084183 
	C261.048828,228.850128 256.235992,236.799240 251.329468,244.685837 
	C250.632004,245.806931 249.666595,246.986160 249.549179,248.208038 
	C248.529816,258.817108 247.701767,269.783447 252.126068,279.557190 
	C256.186218,288.526398 262.541656,296.449097 267.804291,304.883728 
	C272.462097,312.349060 279.585754,315.043365 288.573914,315.760651 
	C280.572357,303.649780 277.187897,290.451508 275.455872,276.753326 
	C274.882019,272.214661 274.721222,267.623810 274.343201,262.686462 
	C292.281311,262.686462 309.543640,262.686462 327.648376,262.686462 
	C327.285126,267.343903 327.406006,272.141388 326.450623,276.714020 
	C324.494019,286.078796 322.802582,295.639038 319.463409,304.541748 
	C314.590363,317.534027 304.848450,325.488495 290.454529,325.815735 
	C277.002808,326.121521 265.747711,321.159088 258.193909,309.563141 
	C248.687759,294.970215 239.320480,280.284454 230.132660,265.490051 
	C229.165451,263.932648 228.926559,260.827881 229.835953,259.364716 
	C243.051514,238.101593 256.270691,216.832123 270.001282,195.900192 
	C283.182526,175.805710 308.572174,177.468094 318.300323,199.481659 
	C322.632172,209.284088 323.999573,220.416824 326.499298,230.996140 
	C327.240967,234.134964 327.256897,237.445251 327.652161,241.110870 
	C309.675323,241.110870 292.302490,241.110870 274.622345,241.110870 
	C275.174133,227.097961 277.343719,213.798828 282.582458,200.473816 
	C282.750275,199.337372 282.716675,198.764801 282.683105,198.192230 
	C282.216400,198.464355 281.749695,198.736465 281.282990,199.008591 
z"/>
<path fill="#00C5DE" opacity="1.000000" stroke="none" 
	d="
M281.534790,199.331436 
	C281.749695,198.736465 282.216400,198.464355 282.683105,198.192230 
	C282.716675,198.764801 282.750275,199.337372 282.542725,200.100433 
	C282.129944,200.078705 281.958282,199.866486 281.534790,199.331436 
z"/>
</svg>